<svg width="531" height="96" viewBox="0 0 531 96" fill="none" xmlns="http://www.w3.org/2000/svg">
<path d="M497.162 95.8719C491.189 95.8719 485.941 94.8479 481.418 92.7999C476.981 90.7519 473.269 88.0212 470.282 84.6079C467.381 81.1092 465.162 77.2266 463.626 72.9599C462.176 68.6932 461.45 64.3412 461.45 59.9039V57.4719C461.45 52.8639 462.176 48.4266 463.626 44.1599C465.162 39.8079 467.381 35.9679 470.282 32.6399C473.269 29.2266 476.938 26.5386 481.29 24.5759C485.642 22.5279 490.677 21.5039 496.394 21.5039C503.904 21.5039 510.176 23.1679 515.21 26.4959C520.33 29.7386 524.17 34.0479 526.73 39.4239C529.29 44.7146 530.57 50.4319 530.57 56.5759V62.9759H469.002V52.0959H519.434L513.93 57.4719C513.93 53.0346 513.29 49.2372 512.01 46.0799C510.73 42.9226 508.768 40.4906 506.122 38.7839C503.562 37.0772 500.32 36.2239 496.394 36.2239C492.469 36.2239 489.141 37.1199 486.41 38.9119C483.68 40.7039 481.589 43.3066 480.138 46.7199C478.773 50.0479 478.09 54.0586 478.09 58.7519C478.09 63.1039 478.773 66.9866 480.138 70.3999C481.504 73.7279 483.594 76.3732 486.41 78.3359C489.226 80.2132 492.81 81.1519 497.162 81.1519C501.514 81.1519 505.056 80.2986 507.786 78.5919C510.517 76.7999 512.266 74.6239 513.034 72.0639H529.418C528.394 76.8426 526.432 81.0239 523.53 84.6079C520.629 88.1919 516.917 90.9652 512.394 92.9279C507.957 94.8906 502.88 95.8719 497.162 95.8719Z" fill="white"/>
<path d="M405.358 95.744C400.494 95.744 396.014 94.848 391.918 93.056C387.822 91.264 384.281 88.7467 381.294 85.504C378.308 82.2613 376.004 78.5067 374.382 74.24C372.761 69.888 371.95 65.1947 371.95 60.16V57.472C371.95 52.5227 372.718 47.872 374.254 43.52C375.876 39.168 378.094 35.3707 380.91 32.128C383.812 28.8853 387.268 26.368 391.278 24.576C395.374 22.6987 399.897 21.76 404.846 21.76C410.308 21.76 415.086 22.9547 419.182 25.344C423.364 27.648 426.692 31.1467 429.166 35.84C431.641 40.5333 433.006 46.4213 433.262 53.504L428.014 47.36V0H445.806V93.44H431.726V63.872H434.798C434.542 70.9547 433.092 76.8853 430.446 81.664C427.801 86.3573 424.302 89.8987 419.95 92.288C415.684 94.592 410.82 95.744 405.358 95.744ZM409.326 80.768C412.825 80.768 416.025 80 418.926 78.464C421.828 76.8427 424.132 74.5387 425.838 71.552C427.63 68.48 428.526 64.896 428.526 60.8V55.68C428.526 51.584 427.63 48.1707 425.838 45.44C424.046 42.624 421.7 40.4907 418.798 39.04C415.897 37.504 412.74 36.736 409.326 36.736C405.486 36.736 402.073 37.6747 399.086 39.552C396.185 41.344 393.881 43.904 392.174 47.232C390.553 50.56 389.742 54.4427 389.742 58.88C389.742 63.3173 390.596 67.2 392.302 70.528C394.009 73.7707 396.313 76.288 399.214 78.08C402.201 79.872 405.572 80.768 409.326 80.768Z" fill="white"/>
<path d="M302.062 34.4159C304.762 30.997 309.691 30.4421 313.066 33.1772C316.441 35.9123 316.989 40.9066 314.289 44.3255L302.551 59.1899L314.289 74.0544C316.989 77.4733 316.441 82.4676 313.066 85.2027C309.691 87.9378 304.762 87.3829 302.062 83.964L286.411 64.1447C284.124 61.2494 284.124 57.1305 286.411 54.2351L302.062 34.4159Z" fill="#5340FF"/>
<path d="M333.634 33.1772C337.008 30.4421 341.938 30.997 344.638 34.4159L360.289 54.2351C362.575 57.1305 362.575 61.2494 360.289 64.1447L344.638 83.964C341.938 87.3829 337.008 87.9378 333.634 85.2027C330.259 82.4676 329.711 77.4733 332.411 74.0544L344.149 59.1899L332.411 44.3255C329.711 40.9066 330.259 35.9123 333.634 33.1772Z" fill="#5340FF"/>
<path d="M242.406 95.8719C236.347 95.8719 231.099 94.8479 226.662 92.7999C222.31 90.7519 218.641 88.0212 215.654 84.6079C212.753 81.1946 210.577 77.3546 209.126 73.0879C207.675 68.8212 206.95 64.4692 206.95 60.0319V57.5999C206.95 52.9066 207.675 48.4266 209.126 44.1599C210.662 39.8079 212.923 35.9679 215.91 32.6399C218.897 29.2266 222.566 26.5386 226.918 24.5759C231.355 22.5279 236.475 21.5039 242.278 21.5039C248.337 21.5039 253.755 22.6986 258.534 25.0879C263.313 27.3919 267.11 30.6346 269.926 34.8159C272.827 38.9972 274.449 43.8612 274.79 49.4079H257.51C257.083 45.8239 255.547 42.8372 252.902 40.4479C250.342 38.0586 246.801 36.8639 242.278 36.8639C238.353 36.8639 235.067 37.8026 232.422 39.6799C229.862 41.5572 227.942 44.1599 226.662 47.4879C225.382 50.7306 224.742 54.4852 224.742 58.7519C224.742 62.8479 225.339 66.5599 226.534 69.8879C227.814 73.2159 229.734 75.8186 232.294 77.6959C234.939 79.5732 238.31 80.5119 242.406 80.5119C245.478 80.5119 248.123 79.9572 250.342 78.8479C252.561 77.7386 254.31 76.2026 255.59 74.2399C256.955 72.2772 257.809 70.0586 258.15 67.5839H275.43C275.089 73.2159 273.425 78.1652 270.438 82.4319C267.537 86.6132 263.654 89.8986 258.79 92.2879C254.011 94.6772 248.55 95.8719 242.406 95.8719Z" fill="white"/>
<path d="M162.89 95.744C157.173 95.744 152.138 94.5493 147.786 92.16C143.434 89.6853 140.021 86.1013 137.546 81.408C135.071 76.7147 133.706 71.04 133.45 64.384H136.138V93.44H122.058V0H139.85V46.72L135.114 54.016C135.455 46.848 136.863 40.8747 139.338 36.096C141.898 31.3173 145.311 27.7333 149.578 25.344C153.845 22.9547 158.666 21.76 164.042 21.76C168.821 21.76 173.173 22.656 177.098 24.448C181.023 26.24 184.394 28.7573 187.21 32C190.026 35.1573 192.159 38.8693 193.61 43.136C195.146 47.4027 195.914 52.0533 195.914 57.088V59.776C195.914 64.8107 195.146 69.504 193.61 73.856C192.074 78.208 189.855 82.048 186.954 85.376C184.053 88.6187 180.554 91.1787 176.458 93.056C172.447 94.848 167.925 95.744 162.89 95.744ZM158.922 80.768C162.762 80.768 166.09 79.8293 168.906 77.952C171.807 75.9893 174.069 73.344 175.69 70.016C177.311 66.688 178.122 62.848 178.122 58.496C178.122 54.0587 177.311 50.2187 175.69 46.976C174.069 43.7333 171.807 41.216 168.906 39.424C166.09 37.632 162.762 36.736 158.922 36.736C155.423 36.736 152.181 37.504 149.194 39.04C146.293 40.576 143.903 42.8373 142.026 45.824C140.234 48.8107 139.338 52.3947 139.338 56.576V61.696C139.338 65.7067 140.277 69.12 142.154 71.936C144.031 74.752 146.463 76.928 149.45 78.464C152.437 80 155.594 80.768 158.922 80.768Z" fill="white"/>
<path d="M88.9201 93.44V72.832H85.9761V49.92C85.9761 45.9093 84.9947 42.9227 83.0321 40.96C81.0694 38.9973 78.0401 38.016 73.9441 38.016C71.8107 38.016 69.2507 38.0586 66.2641 38.144C63.2774 38.2293 60.2481 38.3573 57.1761 38.528C54.1894 38.6133 51.5014 38.7413 49.1121 38.912V23.808C51.0747 23.6373 53.2934 23.4667 55.7681 23.296C58.2427 23.1253 60.7601 23.04 63.3201 23.04C65.9654 22.9547 68.4401 22.912 70.7441 22.912C77.9121 22.912 83.8427 23.8507 88.5361 25.728C93.3147 27.6053 96.8987 30.5493 99.2881 34.56C101.763 38.5706 103 43.8187 103 50.304V93.44H88.9201ZM66.5201 95.232C61.4854 95.232 57.0481 94.336 53.2081 92.544C49.4534 90.752 46.5094 88.192 44.3761 84.864C42.3281 81.536 41.3041 77.5253 41.3041 72.832C41.3041 67.712 42.5414 63.5307 45.0161 60.288C47.5761 57.0453 51.1174 54.6133 55.6401 52.992C60.2481 51.3707 65.6241 50.56 71.7681 50.56H87.8961V61.184H71.5121C67.4161 61.184 64.2587 62.208 62.0401 64.256C59.9067 66.2186 58.8401 68.7787 58.8401 71.936C58.8401 75.0933 59.9067 77.6533 62.0401 79.616C64.2587 81.5787 67.4161 82.56 71.5121 82.56C73.9867 82.56 76.2481 82.1333 78.2961 81.28C80.4294 80.3413 82.1787 78.8053 83.5441 76.672C84.9947 74.4533 85.8054 71.4667 85.9761 67.712L90.3281 72.704C89.9014 77.568 88.7067 81.664 86.7441 84.992C84.8667 88.32 82.2214 90.88 78.8081 92.672C75.4801 94.3787 71.3841 95.232 66.5201 95.232Z" fill="white"/>
<path d="M8.704 93.44V0H26.496V93.44H8.704ZM0 13.312V0H26.496V13.312H0Z" fill="white"/>
</svg>
